<?xml version="1.0" encoding="utf-8" ?>
<svg xmlns="http://www.w3.org/2000/svg" xmlns:xlink="http://www.w3.org/1999/xlink" width="321" height="105">
	<path fill="#FEFEFE" d="M0 0L320.562 0C321.464 1.38158 321.007 27.0386 321.008 30.3085L321.005 84.8123L321.002 98.4087C321.001 100.18 321.286 102.514 320.914 104.209C320.852 104.49 320.719 104.76 320.562 105L0 105L0 0Z"/>
	<path fill="#DCDADD" d="M84.9438 25.2347C85.681 25.3003 86.8248 25.1715 87.4466 25.554C85.2316 26.9365 83.8136 28.5853 83.2086 31.1722C82.6212 33.684 83.0258 36.2749 82.5689 38.7593L81.4572 38.7742C81.4508 36.6633 81.3754 34.5127 81.5117 32.4068C81.7054 29.4138 82.676 27.2303 84.9438 25.2347Z"/>
	<path fill="#DCDADD" d="M88.4235 23.5211C91.573 23.3995 94.5531 23.5792 96.9921 25.8299C99.2134 27.8797 99.908 30.7314 100.005 33.6416C100.062 35.3519 99.9913 37.0708 99.9321 38.7806L98.4619 38.7678C98.2539 35.5603 98.8383 31.4354 97.1562 28.5791C95.6429 26.0093 92.8982 25.3107 90.2236 24.609C89.462 24.3512 88.9845 24.1024 88.4235 23.5211Z"/>
	<path fill="#D43231" d="M105.199 38.8522C105.898 38.8085 106.937 38.6119 107.553 38.9674C107.818 41.1802 108.695 51.8913 107.94 53.261C107.241 53.7312 105.831 53.5116 105 53.4919C105.344 52.3889 104.768 40.6552 104.375 39.0756L105.199 38.8522Z"/>
	<path fill="#1C1C1D" d="M250.324 37.125C252.103 36.9529 253.927 37.0229 255.714 37.0207C255.863 37.1464 256.007 37.2867 256.13 37.4383C257.116 38.655 262.481 49.9816 262.364 50.9592Q262.759 50.6203 263.068 50.2015C264.254 48.5917 269.338 38.4251 269.134 37.0817C271.109 36.9602 273.117 37.0353 275.095 37.0397C275.095 37.0547 275.096 37.0697 275.095 37.0847C275.094 37.1095 275.091 37.1342 275.09 37.159C275.088 37.2046 275.089 37.2504 275.086 37.2959C275.005 38.6119 270.059 47.6572 268.967 48.6251C269.221 50.3858 265.874 54.0689 265.516 56.3143C265.068 59.1268 266.115 65.6831 265.013 67.7386C263.273 67.7469 261.531 67.719 259.791 67.7056C259.827 67.6466 259.86 67.5876 259.889 67.5252C260.45 66.3182 260.137 64.14 260.122 62.799C260.098 60.7073 260.248 58.5963 259.834 56.5324C258.704 50.9004 252.465 42.8879 250.324 37.125Z"/>
	<path fill="#1C1C1D" d="M165.557 37.0378L170.646 37.0377C170.688 37.1153 170.691 37.1158 170.722 37.1875C170.734 37.2171 170.746 37.2472 170.759 37.2769C171.337 38.6387 171.203 63.5168 170.972 66.3782C170.91 67.1436 170.906 67.2149 170.331 67.7048C168.752 67.8209 167.106 67.7282 165.519 67.7276C165.677 67.4953 165.812 67.2328 165.877 66.9582C166.262 65.3308 166.306 55.7729 165.538 54.5465C161.006 54.3685 156.449 54.4868 151.914 54.5119C152.044 54.7014 152.15 54.9188 152.196 55.1456C152.514 56.7223 152.484 66.7383 151.839 67.7189C150.111 67.7382 148.381 67.7214 146.652 67.7217C146.874 67.3733 147.006 66.9112 147.029 66.5002C147.355 60.7563 147.05 54.8132 147.05 49.0497C147.051 45.6675 147.494 40.3098 146.898 37.1244C148.521 36.9385 150.231 37.0352 151.866 37.0323C152.001 37.2381 152.093 37.4497 152.15 37.69C152.526 39.2719 152.523 48.947 151.857 50.0151Q158.7 50.091 165.543 49.97Q165.757 49.6666 165.861 49.3099C166.326 47.7155 166.276 38.3719 165.557 37.0378Z"/>
	<path fill="#1C1C1D" d="M184.733 37.3745C186.563 37.1799 188.38 37.2553 190.214 37.3141C190.339 37.4278 190.456 37.5501 190.549 37.6914C191.371 38.9413 192.449 43.0512 193.045 44.6992C195.687 52.0004 198.725 59.3494 200.977 66.773C201.071 67.0825 201.058 67.3938 201.002 67.7102L195.733 67.7405C195.745 67.6679 195.755 67.595 195.758 67.5213C195.806 66.3215 194.073 62.0953 193.249 61.2557L189.937 61.2396L181.333 61.2452C181.389 61.4075 181.433 61.574 181.437 61.7467C181.467 63.0083 180.025 66.8574 179.132 67.725C177.241 67.7919 175.323 67.6931 173.431 67.662C173.695 67.4469 173.943 67.1971 174.14 66.9176C175.467 65.0322 184.897 38.3246 184.733 37.3745Z"/>
	<path fill="#FEFEFE" d="M187.163 45.3723L187.841 45.5185C188.842 47.2464 191.907 55.1727 191.77 56.7325L187.687 56.7538L182.818 56.7401Q183.035 56.5515 183.225 56.3359C184.032 55.4245 187.247 46.7882 187.163 45.3723Z"/>
	<path fill="#1C1C1D" d="M228.657 37.1247C229.179 37.0602 229.701 37.0592 230.226 37.049C235.329 36.9493 243.1 36.0538 247.099 39.9233C248.834 41.6025 249.715 43.8865 249.742 46.2763C249.768 48.5983 248.93 50.7997 247.294 52.4505C244.568 55.201 240.843 55.4807 237.187 55.481L233.672 55.5202C233.792 55.701 233.895 55.901 233.954 56.111C234.354 57.5508 234.297 66.4825 233.639 67.6858C231.956 67.8158 230.216 67.7285 228.526 67.7266Q228.683 67.4984 228.79 67.2425C229.304 65.9782 229.247 38.5168 228.657 37.1247Z"/>
	<path fill="#FEFEFE" d="M233.912 41.6247C236.006 41.2999 238.877 41.2386 240.946 41.7775C242.129 42.0858 243.237 42.6716 243.863 43.7634C244.604 45.0576 244.516 46.8919 244.116 48.2827C243.903 49.0231 243.472 49.3582 242.824 49.7257C242.79 49.8282 242.745 49.9228 242.666 49.9986C240.954 51.6453 235.86 51.0488 233.631 51.012C234.371 49.9119 234.195 43.1235 233.912 41.6247Z"/>
	<path fill="#1C1C1D" d="M204.143 37.1247C206.257 36.8583 208.537 36.9863 210.67 36.9842C214.769 36.98 219.644 36.9495 222.746 40.0618C224.425 41.7473 225.271 44.0153 225.264 46.3752C225.257 48.6899 224.4 50.8512 222.739 52.4801C219.91 55.2546 216.187 55.5066 212.437 55.4812L209.084 55.5119C209.092 55.527 209.101 55.5419 209.108 55.5573C209.121 55.583 209.132 55.6096 209.145 55.6352C209.216 55.7774 209.289 55.916 209.348 56.0647C209.911 57.507 209.704 66.453 209.121 67.7214C207.41 67.7527 205.692 67.7186 203.98 67.7146C204.001 67.686 204.021 67.6574 204.04 67.6276C204.417 67.0327 204.48 38.5229 204.143 37.1247Z"/>
	<path fill="#FEFEFE" d="M209.368 41.6246C211.384 41.3083 214.052 41.2621 216.064 41.6784C217.349 41.9443 218.581 42.5047 219.312 43.6433C220.042 44.7824 220.149 46.3851 219.864 47.6817C219.643 48.6915 219.178 49.2282 218.326 49.7773L218.166 50.0758C216.071 51.5897 211.608 51.0493 209.124 51.001C209.134 50.9865 209.145 50.9722 209.155 50.9576C209.857 49.9026 209.659 43.0689 209.368 41.6246Z"/>
	<path fill="#F4AD30" d="M107.94 53.261C111.052 54.1503 120.444 53.4659 124.283 53.5181C124.448 53.771 124.619 54.0853 124.665 54.3867C125.084 57.1645 126.976 78.5025 126.686 79.9168C126.628 80.1983 126.547 80.4817 126.401 80.7309L102.675 80.7324C98.6312 80.7321 94.5186 80.8911 90.485 80.7069C91.1537 79.177 92.5811 56.7589 92.7428 53.5182L99.9373 53.4717L103.343 53.4897L105 53.4919C105.831 53.5116 107.241 53.7312 107.94 53.261Z"/>
	<path fill="#FEFEFE" d="M109.208 58.8571C109.668 58.8523 110.025 58.9369 110.461 59.0812C111.125 59.8401 110.93 62.2929 110.951 63.313C111.011 66.2184 111.286 69.6485 109.077 71.9126C107.917 73.1005 106.326 73.6451 104.687 73.6493C102.785 73.6542 100.822 72.9819 99.4756 71.6059C97.3352 69.4183 97.9123 64.757 97.9284 61.9375C97.9074 61.3129 97.8861 60.579 97.9979 59.9619C98.0618 59.6095 98.2785 59.3389 98.565 59.1348C98.9926 58.8302 99.1149 58.833 99.6128 58.9169C101.162 60.3933 100.168 65.2447 100.378 67.3697C100.505 68.6498 100.852 70.0956 101.906 70.9375C102.66 71.5404 103.662 71.6846 104.598 71.563C112.273 70.5658 106.497 62.3268 109.208 58.8571Z"/>
	<path fill="#EC4240" d="M93.7579 38.4881L94.0501 38.7226C95.5203 38.7543 96.9913 38.7991 98.4619 38.7678L99.9321 38.7806C101.639 38.7729 103.515 38.6091 105.199 38.8522L104.375 39.0756C104.768 40.6552 105.344 52.3889 105 53.4919L103.343 53.4897L99.9373 53.4717L92.7428 53.5182C92.5811 56.7589 91.1537 79.177 90.485 80.7069L65.2255 80.7389C65.2564 73.5196 65.8373 66.1953 66.2925 58.9905Q66.8829 48.8825 67.3618 38.7685L74.5322 38.7985L74.5586 38.9996C75.5368 39.2065 75.9648 38.6453 76.9721 38.7402L77.2036 38.7579L81.4572 38.7742L82.5689 38.7593C85.484 38.7732 88.4074 38.8299 91.3216 38.7609L91.4763 38.7193C92.1904 38.8983 93.054 38.6398 93.7579 38.4881Z"/>
	<path fill="#DCDADD" d="M93.7579 38.4881L94.0501 38.7226C94.0014 40.2235 94.2296 42.5448 93.5693 43.8943C93.0759 44.1149 92.7849 44.1008 92.2642 43.9765C90.8917 42.4988 91.8909 40.5702 91.3383 38.8122C91.3329 38.795 91.3272 38.778 91.3216 38.7609L91.4763 38.7193C92.1904 38.8983 93.054 38.6398 93.7579 38.4881Z"/>
	<path fill="#DCDADD" d="M74.5586 38.9996C75.5368 39.2065 75.9648 38.6453 76.9721 38.7402C76.811 41.6529 76.926 44.5815 76.7475 47.4865L74.628 47.9503C74.6563 44.9688 74.5876 41.9813 74.5586 38.9996Z"/>
	<path fill="#F4AD30" d="M76.7475 47.4865C77.4562 48.2109 78.1979 48.876 78.9634 49.5384L78.9829 57.767L72.5362 57.779C72.5535 54.9826 72.6401 52.1634 72.5302 49.3698C73.1837 48.9452 74.0902 48.4988 74.628 47.9503L76.7475 47.4865Z"/>
	<path fill="#D43231" d="M99.7787 39.0306C101.004 38.9724 102.237 38.9716 103.464 38.9473L104.375 39.0756C104.768 40.6552 105.344 52.3889 105 53.4919L103.343 53.4897L99.9373 53.4717C99.5431 50.4414 99.1107 41.7711 99.7787 39.0306Z"/>
	<path fill="#A12525" d="M103.464 38.9473L104.375 39.0756C104.768 40.6552 105.344 52.3889 105 53.4919L103.343 53.4897C103.428 49.7724 102.445 42.0417 103.464 38.9473Z"/>
</svg>
